<svg id="visual" viewBox="0 0 900 60" width="900" height="60" xmlns="http://www.w3.org/2000/svg" xmlns:xlink="http://www.w3.org/1999/xlink" version="1.1"><path d="M0 23L39 27L78 22L117 33L157 28L196 23L235 23L274 30L313 24L352 28L391 30L430 22L470 32L509 29L548 23L587 29L626 32L665 22L704 24L743 33L783 21L822 21L861 33L900 34L900 61L861 61L822 61L783 61L743 61L704 61L665 61L626 61L587 61L548 61L509 61L470 61L430 61L391 61L352 61L313 61L274 61L235 61L196 61L157 61L117 61L78 61L39 61L0 61Z" fill="#364660"></path><path d="M0 32L39 34L78 36L117 37L157 34L196 30L235 30L274 33L313 33L352 36L391 35L430 31L470 34L509 40L548 34L587 37L626 29L665 37L704 39L743 30L783 40L822 41L861 30L900 31L900 61L861 61L822 61L783 61L743 61L704 61L665 61L626 61L587 61L548 61L509 61L470 61L430 61L391 61L352 61L313 61L274 61L235 61L196 61L157 61L117 61L78 61L39 61L0 61Z" fill="#2e3c53"></path><path d="M0 44L39 42L78 45L117 44L157 42L196 46L235 40L274 41L313 43L352 40L391 47L430 39L470 47L509 43L548 46L587 46L626 39L665 47L704 39L743 42L783 40L822 44L861 46L900 47L900 61L861 61L822 61L783 61L743 61L704 61L665 61L626 61L587 61L548 61L509 61L470 61L430 61L391 61L352 61L313 61L274 61L235 61L196 61L157 61L117 61L78 61L39 61L0 61Z" fill="#263247"></path><path d="M0 46L39 50L78 48L117 49L157 51L196 51L235 47L274 49L313 52L352 47L391 47L430 47L470 50L509 47L548 47L587 50L626 52L665 49L704 52L743 48L783 49L822 51L861 51L900 49L900 61L861 61L822 61L783 61L743 61L704 61L665 61L626 61L587 61L548 61L509 61L470 61L430 61L391 61L352 61L313 61L274 61L235 61L196 61L157 61L117 61L78 61L39 61L0 61Z" fill="#1e293b"></path></svg>