<svg id="visual" viewBox="0 0 900 60" width="900" height="60" xmlns="http://www.w3.org/2000/svg" xmlns:xlink="http://www.w3.org/1999/xlink" version="1.1"><path d="M0 23L11.5 23.5C23 24 46 25 69 25C92 25 115 24 138.2 21.8C161.3 19.7 184.7 16.3 207.8 16.8C231 17.3 254 21.7 277 23.7C300 25.7 323 25.3 346 24.8C369 24.3 392 23.7 415.2 24.3C438.3 25 461.7 27 484.8 26C508 25 531 21 554 18.5C577 16 600 15 623 14.5C646 14 669 14 692.2 14.8C715.3 15.7 738.7 17.3 761.8 18.3C785 19.3 808 19.7 831 18.3C854 17 877 14 888.5 12.5L900 11L900 61L888.5 61C877 61 854 61 831 61C808 61 785 61 761.8 61C738.7 61 715.3 61 692.2 61C669 61 646 61 623 61C600 61 577 61 554 61C531 61 508 61 484.8 61C461.7 61 438.3 61 415.2 61C392 61 369 61 346 61C323 61 300 61 277 61C254 61 231 61 207.8 61C184.7 61 161.3 61 138.2 61C115 61 92 61 69 61C46 61 23 61 11.5 61L0 61Z" fill="#cdcdcd"></path><path d="M0 37L11.5 36.2C23 35.3 46 33.7 69 32.2C92 30.7 115 29.3 138.2 27.7C161.3 26 184.7 24 207.8 25.2C231 26.3 254 30.7 277 31C300 31.3 323 27.7 346 27.2C369 26.7 392 29.3 415.2 28.8C438.3 28.3 461.7 24.7 484.8 24.5C508 24.3 531 27.7 554 29.2C577 30.7 600 30.3 623 29.5C646 28.7 669 27.3 692.2 28.3C715.3 29.3 738.7 32.7 761.8 34.3C785 36 808 36 831 34.8C854 33.7 877 31.3 888.5 30.2L900 29L900 61L888.5 61C877 61 854 61 831 61C808 61 785 61 761.8 61C738.7 61 715.3 61 692.2 61C669 61 646 61 623 61C600 61 577 61 554 61C531 61 508 61 484.8 61C461.7 61 438.3 61 415.2 61C392 61 369 61 346 61C323 61 300 61 277 61C254 61 231 61 207.8 61C184.7 61 161.3 61 138.2 61C115 61 92 61 69 61C46 61 23 61 11.5 61L0 61Z" fill="#bfbfbf"></path><path d="M0 32L11.5 33C23 34 46 36 69 37.3C92 38.7 115 39.3 138.2 39C161.3 38.7 184.7 37.3 207.8 37C231 36.7 254 37.3 277 37.7C300 38 323 38 346 37.3C369 36.7 392 35.3 415.2 34.2C438.3 33 461.7 32 484.8 33C508 34 531 37 554 38.7C577 40.3 600 40.7 623 39.2C646 37.7 669 34.3 692.2 33.2C715.3 32 738.7 33 761.8 33.8C785 34.7 808 35.3 831 35.3C854 35.3 877 34.7 888.5 34.3L900 34L900 61L888.5 61C877 61 854 61 831 61C808 61 785 61 761.8 61C738.7 61 715.3 61 692.2 61C669 61 646 61 623 61C600 61 577 61 554 61C531 61 508 61 484.8 61C461.7 61 438.3 61 415.2 61C392 61 369 61 346 61C323 61 300 61 277 61C254 61 231 61 207.8 61C184.7 61 161.3 61 138.2 61C115 61 92 61 69 61C46 61 23 61 11.5 61L0 61Z" fill="#b1b1b1"></path><path d="M0 51L11.5 51.2C23 51.3 46 51.7 69 52C92 52.3 115 52.7 138.2 51.2C161.3 49.7 184.7 46.3 207.8 45.5C231 44.7 254 46.3 277 47.5C300 48.7 323 49.3 346 48.7C369 48 392 46 415.2 44.8C438.3 43.7 461.7 43.3 484.8 43C508 42.7 531 42.3 554 43.3C577 44.3 600 46.7 623 46.8C646 47 669 45 692.2 45.5C715.3 46 738.7 49 761.8 50C785 51 808 50 831 48.3C854 46.7 877 44.3 888.5 43.2L900 42L900 61L888.5 61C877 61 854 61 831 61C808 61 785 61 761.8 61C738.7 61 715.3 61 692.2 61C669 61 646 61 623 61C600 61 577 61 554 61C531 61 508 61 484.8 61C461.7 61 438.3 61 415.2 61C392 61 369 61 346 61C323 61 300 61 277 61C254 61 231 61 207.8 61C184.7 61 161.3 61 138.2 61C115 61 92 61 69 61C46 61 23 61 11.5 61L0 61Z" fill="#a3a3a3"></path></svg>