<svg id="visual" viewBox="0 0 600 40" width="600" height="40" xmlns="http://www.w3.org/2000/svg" xmlns:xlink="http://www.w3.org/1999/xlink" version="1.1"><path d="M0 22L33 12L67 20L100 22L133 17L167 17L200 18L233 21L267 17L300 17L333 24L367 12L400 15L433 21L467 17L500 12L533 20L567 24L600 16L600 41L567 41L533 41L500 41L467 41L433 41L400 41L367 41L333 41L300 41L267 41L233 41L200 41L167 41L133 41L100 41L67 41L33 41L0 41Z" fill="#546352"></path><path d="M0 21L33 24L67 23L100 22L133 24L167 29L200 27L233 23L267 24L300 24L333 22L367 25L400 24L433 19L467 28L500 20L533 27L567 25L600 28L600 41L567 41L533 41L500 41L467 41L433 41L400 41L367 41L333 41L300 41L267 41L233 41L200 41L167 41L133 41L100 41L67 41L33 41L0 41Z" fill="#4d5a4b"></path><path d="M0 31L33 26L67 32L100 29L133 31L167 25L200 32L233 28L267 23L300 26L333 32L367 30L400 25L433 31L467 32L500 28L533 27L567 29L600 30L600 41L567 41L533 41L500 41L467 41L433 41L400 41L367 41L333 41L300 41L267 41L233 41L200 41L167 41L133 41L100 41L67 41L33 41L0 41Z" fill="#455244"></path><path d="M0 29L33 33L67 36L100 32L133 34L167 36L200 32L233 36L267 30L300 30L333 29L367 35L400 30L433 30L467 34L500 34L533 34L567 35L600 32L600 41L567 41L533 41L500 41L467 41L433 41L400 41L367 41L333 41L300 41L267 41L233 41L200 41L167 41L133 41L100 41L67 41L33 41L0 41Z" fill="#3e4a3d"></path></svg>
